<?xml version="1.0" encoding="UTF-8"?>
<svg id="Layer_1" data-name="Layer 1" xmlns="http://www.w3.org/2000/svg" viewBox="0 0 2048 2048">
  <defs>
    <style>
      .cls-1 {
        fill: #367de5;
      }

      .cls-2 {
        fill: #fda122;
      }

      .cls-3 {
        fill: #5fa1f3;
      }

      .cls-4 {
        fill: #42a455;
      }

      .cls-5 {
        fill: #f14132;
      }

      .cls-6 {
        fill: #fdfcfc;
      }
    </style>
  </defs>
  <rect class="cls-6" width="2048" height="2048" style="display:none"/>
  <path class="cls-5" d="M645.33,750.49l-.31,160.77c0,3.72.02,7.58-2.46,9.63-1.8,1.49-5.14,3.97-9.19,3.97h-272.21c-10.29,0-18.45-8.49-18.45-18.8l-.27-538.36c-.02-38.33,28.34-70.95,67.75-70.96l207.09-.04c18.38,0,29.13,16.51,29.09,34.17l-.63,278.86-.41,140.77Z"/>
  <path class="cls-5" d="M635.91,1267.73c-41.36,4.54-76.87,31.08-92.01,69.78-1.89,4.84-5.83,8.69-11.61,8.68l-169.62-.04c-11.63,0-20.02-8.25-20.02-20.3l.03-317.9c0-11.62,9.57-19.72,19.87-19.67l41.08.22,224.59.4c10.48.02,17.01,8.63,17.01,18.95l-.09,249.39c0,5.84-4.05,9.91-9.23,10.48Z"/>
  <path class="cls-2" d="M1152.39,548.09c-9.5.02-12.67-3.77-15.36-11.13-16.75-45.81-63.17-74.58-111.7-68.91-5.31.62-11.57,1.25-14.99-3.94l-101-153.08c-2.03-3.07-.58-7.58.44-9.72,1.42-2.99,5.13-4.89,9.99-4.89l384.89.07c14.68,0,25.75,11.18,25.76,25.57l.03,213.15c0,6.78-5.67,12.45-12.74,12.47l-165.31.41Z"/>
  <path class="cls-3" d="M1536.1,1264.69l-133.17-.9c-7.23-.05-13.69-4.88-13.7-12.95l-.06-184.2c0-6.11,4.18-9.61,9.1-11.23,29.57-9.79,54.31-29.92,67.74-57.98,2.77-5.78,6.64-9.82,13.76-9.83l205.56-.02c10.81,0,20.56,7.5,20.56,19.05l.03,258.25c0,11.52-10.52,16.59-20.55,15.28-49.87-6.5-97.77-15.13-149.28-15.48Z"/>
  <path class="cls-3" d="M1473.62,914.76c-9.66-39.12-37.97-69.46-75.6-81.79-5.1-1.67-8.92-4.84-8.92-11.05l.07-197.9c0-6.48,5.24-12.1,11.56-12.16,72.13-.66,142.67-9.03,213.13-25.11l80.32-20.98c4.19-1.09,10.37.8,11.6,4.76,2.21,7.1.29,13.29.29,21l-.04,314.34c0,10.78-8.15,19.02-19.11,19.03l-200.56.08c-6.58,0-11.12-3.67-12.73-10.21Z"/>
  <path class="cls-3" d="M1700.52,492.84l-61.22,13.04-107.02,23.65c-29.91,6.61-128.23,20.95-139.31,13.68-2.88-1.89-3.84-5.04-3.83-9.32l.1-213.7c0-11.89,8.28-23.59,21.12-23.59l228.78-.04c27.57,0,49.19,17.76,61.63,40.81,1.71,3.17,5.93,4.2,5.92,9.08l-.42,135.28c-.01,3.52-1.15,10.13-5.75,11.11Z"/>
  <path class="cls-2" d="M854.38,880.76l-.06,27.4c-.02,9.4-6.54,16.67-16.62,16.66l-117.38-.15c-7.38,0-15.86-6.04-15.87-13.78l-.25-281.94c0-9.98,5.33-18.39,16.24-18.39l206.96-.03c4.89,0,9.19,3.93,10.66,7.78,11.82,30.9,37.29,52.14,67.84,62.95,6.76,2.39,1.12,10.91-1.91,14.26l-137.95,152.33c-8,8.83-11.63,21-11.66,32.91Z"/>
  <path class="cls-3" d="M1262.24,885.84c-2.85,5.02-9.79,2.32-12.84-.98l-177.85-192.2c-3.76-4.07-2.41-11.97,2.48-13.92,26.74-10.65,49.03-30.1,60.93-56.63,2.57-5.74,5.93-11.05,13.44-11.03l167.2.5c7.45.02,14.61,6.9,14.62,14.44l.29,193.74c0,5.83-1.05,11.8-6.82,13.91-26.22,9.58-47.38,27.44-61.46,52.18Z"/>
  <circle class="cls-3" cx="1362.29" cy="943.47" r="58.51"/>
  <path class="cls-4" d="M1701.19,1646.52c-12.53,25.62-35.31,42.82-63.97,42.84l-228.25.17c-11.2-2.16-19.8-10.07-19.8-22.15v-324.58c.02-7.83,6.78-13.52,13.73-13.48l132.35.78c52.94.31,103.8,9.31,155.87,16.26,8.24,1.1,14.79,9.92,14.79,17.83l.05,252.39c2.61,11.02.17,19.87-4.76,29.94Z"/>
  <path class="cls-4" d="M1309.11,1689.49l-221.89-.25c-11.63-.01-19.62-10.79-19.62-21.96l-.04-321.32c0-9.24,5.84-16.77,15.48-16.76l233.02.31c8.38.01,12.88,5.96,14.38,13.92l.06,325.05c-1.7,11.72-8.82,19.33-21.38,21.01Z"/>
  <path class="cls-1" d="M547.28,1689.55c-6.41,0-10.53-5.65-8.22-10.64l82.43-178.39c3.72-8.05,9.27-8.43,16.97-7.86,64.94,4.82,118.95-46.25,118.99-111.01,0-8.79,5.63-15.07,12.56-18.82l46.59-25.28c8.28-4.49,17.85-8.18,27.82-8.19l151.74-.18c9.44-.01,15.01,7.68,15.02,16.56l.04,116.06.22,207.24c.01,9.83-7.88,20.24-18.83,20.25l-445.31.27Z"/>
  <path class="cls-1" d="M468.24,1676.86c-6.41,8.32-12.89,12.55-22.25,12.58l-31.42.09c-38.14.11-71.63-28.61-71.68-67.92l-.28-194.08c-.02-10.58,8.13-18.1,18.42-18.08l170.93.32c12.69.02,10.73,21.19,30.18,43.35,4.05,4.62,5.44,8.96,2.58,15.13l-96.47,208.6Z"/>
  <circle class="cls-1" cx="647.28" cy="1379.81" r="55.83"/>
  <path class="cls-2" d="M950.88,511.5c-14.73,20.29-12.36,36.37-25.38,36.37l-205.23-.06c-9.91,0-16.54-7.49-16.54-17.16l.09-210.31c0-13.85,10.25-23.91,23.29-23.91l80.65.04c7.5,0,11.19,5.29,15.1,11.14l128.61,192.55c2.56,3.83,1.85,8-.58,11.35Z"/>
  <circle class="cls-2" cx="1037.22" cy="576.49" r="53.76"/>
  <path class="cls-1" d="M1151.21,1263.55l-167.96-.48-67.29-2.05-77.95-.22c-16.92-.05-31.53,8.62-45.47,16.6l-46.85,26.82c-15.11,8.65-16.89-5.42-35.59-17.01-3.86-2.39-6.12-6.77-6.12-11.9l.26-197.27c0-6.35.62-11.6,5.67-15.58l112.99-89.11c4.15-3.77,10.27-4.69,14.49-1.14l75.7,63.74.23-135.75c.01-8.39,3.79-13.2,9.04-18.88l107.2-116.09c2.95-3.19,4.63-5.21,8.44-5.48,4.52-.32,6.24,2.24,9.5,5.77l106.52,115.13c5.41,5.85,8.69,10.76,8.69,19.33l-.09,149.31,71.29-45.58c6.66-4.26,13.95-4.99,19.43,1.82l67.9,55.88c5.01,4.12,9.16,8.06,9.16,15.38l.11,173.76c-.85,8.47-7.44,13.55-15.84,13.43l-75.56-1.08-.37-224.13-76.31,48.09-.13,175.12c-3.66.96-6.98,1.56-11.11,1.55ZM1085.37,1099.11l47.15-30.16-.06-146.62-93.04-98.83-.08,406.22,36.12.05.08-115.86c0-7.02,4.16-11.16,9.83-14.79ZM913.1,1229.56l-.15-153.24-79.34-66.58-.15,220.06,79.64-.24Z"/>
</svg>